<svg width="513" height="1662" viewBox="0 0 513 1662" fill="none" xmlns="http://www.w3.org/2000/svg">
<g opacity="0.2" clip-path="url(#clip0_25_1202)">
<path d="M-115.853 1326.84L78.1258 1423.34L-30.5495 1482.78L-115.853 1326.84Z" stroke="white" stroke-width="2" stroke-linejoin="round"/>
<path d="M-92.4803 1111.45L16.1951 1052L-177.783 955.505L-92.4803 1111.45Z" stroke="white" stroke-width="2" stroke-linejoin="round"/>
<path d="M-69.108 896.059L16.195 1052L124.87 992.556L-69.108 896.059Z" stroke="white" stroke-width="2" stroke-linejoin="round"/>
<path d="M-154.411 740.115L39.5673 836.612L-69.108 896.059L-154.411 740.115Z" stroke="white" stroke-width="2" stroke-linejoin="round"/>
<path d="M-92.4803 1111.45L16.195 1052L101.498 1207.95L-92.4803 1111.45Z" stroke="white" stroke-width="2" stroke-linejoin="round"/>
<path d="M-7.17725 1267.39L78.1258 1423.34L186.801 1363.89L-7.17725 1267.39Z" stroke="white" stroke-width="2" stroke-linejoin="round"/>
<path d="M101.498 1207.95L210.173 1148.5L295.476 1304.44L101.498 1207.95Z" stroke="white" stroke-width="2" stroke-linejoin="round"/>
<path d="M16.195 1052L124.87 992.556L210.173 1148.5L16.195 1052Z" stroke="white" stroke-width="2" stroke-linejoin="round"/>
<path d="M342.221 873.662L124.87 992.556L295.477 1304.44L342.221 873.662Z" stroke="white" stroke-width="2" stroke-linejoin="round"/>
<path d="M62.9396 621.222L-45.7357 680.668L148.243 777.165L62.9396 621.222Z" stroke="white" stroke-width="2" stroke-linejoin="round"/>
<path d="M124.87 992.556L233.546 933.109L39.5673 836.612L124.87 992.556Z" stroke="white" stroke-width="2" stroke-linejoin="round"/>
<path d="M256.918 717.719L342.221 873.662L148.243 777.165L256.918 717.719Z" stroke="white" stroke-width="2" stroke-linejoin="round"/>
<path d="M171.615 561.775L62.9396 621.222L256.918 717.719L171.615 561.775Z" stroke="white" stroke-width="2" stroke-linejoin="round"/>
<path d="M-22.3634 465.278L-45.7357 680.668L-131.039 524.725L-22.3634 465.278Z" stroke="white" stroke-width="2" stroke-linejoin="round"/>
<path d="M86.3119 405.831L-22.3635 465.278L62.9396 621.222L86.3119 405.831Z" stroke="white" stroke-width="2" stroke-linejoin="round"/>
<path d="M-22.3635 465.278L1.00882 249.887L86.3119 405.831L-22.3635 465.278Z" stroke="white" stroke-width="2" stroke-linejoin="round"/>
<path d="M1.00884 249.887L-107.667 309.334L-84.2942 93.9437L1.00884 249.887Z" stroke="white" stroke-width="2" stroke-linejoin="round"/>
</g>
<defs>
<clipPath id="clip0_25_1202">
<rect width="1422" height="990.975" fill="white" transform="translate(-356.576 1661.12) rotate(-118.679)"/>
</clipPath>
</defs>
</svg>
