<svg width="721" height="1729" viewBox="0 0 721 1729" fill="none" xmlns="http://www.w3.org/2000/svg">
<g opacity="0.2" clip-path="url(#clip0_25_1130)">
<path d="M900.757 0.894775L867.335 432.914L1092.48 157.797L900.757 0.894775Z" stroke="white" stroke-width="2" stroke-linejoin="round"/>
<path d="M771.473 354.462L675.61 276.011L658.899 492.02L771.473 354.462Z" stroke="white" stroke-width="2" stroke-linejoin="round"/>
<path d="M658.899 492.02L563.036 413.569L450.463 551.127L658.899 492.02Z" stroke="white" stroke-width="2" stroke-linejoin="round"/>
<path d="M754.762 570.472L642.188 708.03L658.899 492.02L754.762 570.472Z" stroke="white" stroke-width="2" stroke-linejoin="round"/>
<path d="M771.473 354.462L867.335 432.914L658.899 492.021L771.473 354.462Z" stroke="white" stroke-width="2" stroke-linejoin="round"/>
<path d="M746.406 678.476L754.762 570.472L802.693 609.697L746.406 678.476Z" stroke="white" stroke-width="2" stroke-linejoin="round"/>
<path d="M642.188 708.03L746.406 678.476L698.475 639.251L642.188 708.03Z" stroke="white" stroke-width="2" stroke-linejoin="round"/>
<path d="M690.12 747.255L746.406 678.476L738.051 786.481L690.12 747.255Z" stroke="white" stroke-width="2" stroke-linejoin="round"/>
<path d="M546.326 629.579L450.463 551.127L433.752 767.137L546.326 629.579Z" stroke="white" stroke-width="2" stroke-linejoin="round"/>
<path d="M225.316 826.244L321.178 904.695L337.889 688.686L225.316 826.244Z" stroke="white" stroke-width="2" stroke-linejoin="round"/>
<path d="M433.752 767.137L529.615 845.588L321.178 904.695L433.752 767.137Z" stroke="white" stroke-width="2" stroke-linejoin="round"/>
<path d="M642.188 708.03L433.752 767.137L529.615 845.588L642.188 708.03Z" stroke="white" stroke-width="2" stroke-linejoin="round"/>
<path d="M225.316 826.244L417.041 983.146L191.894 1258.26L225.316 826.244Z" stroke="white" stroke-width="2" stroke-linejoin="round"/>
<path d="M512.904 1061.6L304.467 1120.7L417.041 983.146L512.904 1061.6Z" stroke="white" stroke-width="2" stroke-linejoin="round"/>
<path d="M304.467 1120.7L400.33 1199.16L287.756 1336.71L304.467 1120.7Z" stroke="white" stroke-width="2" stroke-linejoin="round"/>
<path d="M400.33 1199.16L383.619 1415.16L287.756 1336.71L400.33 1199.16Z" stroke="white" stroke-width="2" stroke-linejoin="round"/>
<path d="M608.766 1140.05L512.904 1061.6L496.193 1277.61L608.766 1140.05Z" stroke="white" stroke-width="2" stroke-linejoin="round"/>
<path d="M529.615 845.588L642.188 708.03L625.477 924.039L529.615 845.588Z" stroke="white" stroke-width="2" stroke-linejoin="round"/>
<path d="M512.904 1061.6L529.615 845.588L625.477 924.039L512.904 1061.6Z" stroke="white" stroke-width="2" stroke-linejoin="round"/>
<path d="M625.477 924.039L673.409 963.265L569.19 992.818L625.477 924.039Z" stroke="white" stroke-width="2" stroke-linejoin="round"/>
<path d="M617.122 1032.04L569.19 992.818L560.835 1100.82L617.122 1032.04Z" stroke="white" stroke-width="2" stroke-linejoin="round"/>
<path d="M617.122 1032.04L665.053 1071.27L608.766 1140.05L617.122 1032.04Z" stroke="white" stroke-width="2" stroke-linejoin="round"/>
<path d="M665.053 1071.27L617.122 1032.04L673.409 963.265L665.053 1071.27Z" stroke="white" stroke-width="2" stroke-linejoin="round"/>
<path d="M833.914 864.932L738.051 786.481L625.477 924.039L833.914 864.932Z" stroke="white" stroke-width="2" stroke-linejoin="round"/>
<path d="M833.913 864.932L929.776 943.384L721.34 1002.49L833.913 864.932Z" stroke="white" stroke-width="2" stroke-linejoin="round"/>
<path d="M608.766 1140.05L704.629 1218.5L721.34 1002.49L608.766 1140.05Z" stroke="white" stroke-width="2" stroke-linejoin="round"/>
<path d="M817.202 1080.94L704.629 1218.5L800.492 1296.95L817.202 1080.94Z" stroke="white" stroke-width="2" stroke-linejoin="round"/>
<path d="M608.766 1140.05L704.629 1218.5L592.055 1356.06L608.766 1140.05Z" stroke="white" stroke-width="2" stroke-linejoin="round"/>
<path d="M496.193 1277.61L383.619 1415.16L479.482 1493.62L496.193 1277.61Z" stroke="white" stroke-width="2" stroke-linejoin="round"/>
<path d="M592.055 1356.06L687.918 1434.51L575.344 1572.07L592.055 1356.06Z" stroke="white" stroke-width="2" stroke-linejoin="round"/>
<path d="M704.629 1218.5L800.492 1296.95L687.918 1434.51L704.629 1218.5Z" stroke="white" stroke-width="2" stroke-linejoin="round"/>
<path d="M992.217 1453.85L800.492 1296.95L575.344 1572.07L992.217 1453.85Z" stroke="white" stroke-width="2" stroke-linejoin="round"/>
</g>
<defs>
<clipPath id="clip0_25_1130">
<rect width="1422" height="990.975" fill="white" transform="translate(0.168518 1101.36) rotate(-50.7041)"/>
</clipPath>
</defs>
</svg>
