<svg width="31" height="30" viewBox="0 0 31 30" fill="none" xmlns="http://www.w3.org/2000/svg">
<circle cx="15.5" cy="15" r="15" fill="#16B364"/>
<path d="M30.5 15C30.5 17.6113 29.8183 20.1773 28.5224 22.4443C27.2264 24.7114 25.3611 26.6008 23.1109 27.9257C20.8607 29.2507 18.3036 29.9652 15.6925 29.9988C13.0815 30.0323 10.5069 29.3836 8.22343 28.1168C5.93998 26.8501 4.02677 25.0092 2.67304 22.7762C1.31932 20.5432 0.571978 17.9955 0.504943 15.3851C0.437909 12.7746 1.0535 10.1919 2.29083 7.89241C3.52816 5.59288 5.34436 3.6562 7.55979 2.27392L15.5 15H30.5Z" fill="#087443"/>
<path d="M19.875 9.375H11.125C10.4346 9.375 9.875 9.93464 9.875 10.625V19.375C9.875 20.0654 10.4346 20.625 11.125 20.625H19.875C20.5654 20.625 21.125 20.0654 21.125 19.375V10.625C21.125 9.93464 20.5654 9.375 19.875 9.375Z" stroke="white" stroke-width="1.125" stroke-linecap="round" stroke-linejoin="round"/>
<path d="M13.3125 13.75C13.8303 13.75 14.25 13.3303 14.25 12.8125C14.25 12.2947 13.8303 11.875 13.3125 11.875C12.7947 11.875 12.375 12.2947 12.375 12.8125C12.375 13.3303 12.7947 13.75 13.3125 13.75Z" stroke="white" stroke-width="1.125" stroke-linecap="round" stroke-linejoin="round"/>
<path d="M21.125 16.875L18 13.75L11.125 20.625" stroke="white" stroke-width="1.125" stroke-linecap="round" stroke-linejoin="round"/>
</svg>
