<svg width="1440" height="2846" viewBox="0 0 1440 2846" fill="none" xmlns="http://www.w3.org/2000/svg">
<g opacity="0.15">
<path d="M56.2265 95.7388L224.202 61.3451L352.474 175.109L184.498 209.502L56.2265 95.7388Z" fill="#D4D4D4"/>
<path opacity="0.3" d="M56.2305 95.7344L184.5 209.496L144.798 357.65L16.5278 243.889L56.2305 95.7344Z" fill="#D4D4D4"/>
<path opacity="0.6" d="M184.503 209.5L352.476 175.107L312.773 323.261L144.8 357.655L184.503 209.5Z" fill="#D4D4D4"/>
</g>
<g opacity="0.15">
<path d="M1221.24 207.899L1374.59 131.203L1527.93 207.89L1374.58 284.587L1221.24 207.899Z" fill="#D4D4D4"/>
<path opacity="0.3" d="M1221.24 207.896L1374.58 284.582L1374.58 437.964L1221.24 361.278L1221.24 207.896Z" fill="#D4D4D4"/>
<path opacity="0.6" d="M1374.59 284.586L1527.93 207.89L1527.93 361.272L1374.58 437.968L1374.59 284.586Z" fill="#D4D4D4"/>
</g>
<path d="M286.276 1123.78L321.463 992.463L452.784 957.276L548.917 1053.41L513.73 1184.73L382.409 1219.92L286.276 1123.78Z" stroke="white" stroke-opacity="0.08" stroke-width="20"/>
<g opacity="0.15">
<path d="M291.238 2511.9L444.588 2435.2L597.933 2511.89L444.583 2588.59L291.238 2511.9Z" fill="#D4D4D4"/>
<path opacity="0.3" d="M291.24 2511.89L444.583 2588.58L444.578 2741.96L291.236 2665.28L291.24 2511.89Z" fill="#D4D4D4"/>
<path opacity="0.6" d="M444.589 2588.58L597.937 2511.89L597.932 2665.27L444.585 2741.97L444.589 2588.58Z" fill="#D4D4D4"/>
</g>
</svg>
