<svg width="1147" height="881" viewBox="0 0 1147 881" fill="none" xmlns="http://www.w3.org/2000/svg">
<g opacity="0.15">
<path d="M6.34152 65.5868L220.056 76.3881L336.621 249.336L122.906 238.534L6.34152 65.5868Z" fill="#D4D4D4"/>
<path opacity="0.3" d="M7.08984 64.7891L123.12 236.907L26.3944 398.289L-89.6357 226.171L7.08984 64.7891Z" fill="#D4D4D4"/>
<path opacity="0.6" d="M124.557 238.153L337.313 248.889L240.587 410.271L27.8316 399.534L124.557 238.153Z" fill="#D4D4D4"/>
</g>
<g opacity="0.15">
<path d="M911.672 736.136L995.255 663.414L1106.18 686.967L1022.6 759.689L911.672 736.136Z" fill="#D4D4D4"/>
<path opacity="0.3" d="M911.109 735.888L1021.11 759.246L1048.25 854.639L938.247 831.28L911.109 735.888Z" fill="#D4D4D4"/>
<path opacity="0.6" d="M1022.5 758.216L1105.36 686.182L1132.5 781.574L1049.64 853.608L1022.5 758.216Z" fill="#D4D4D4"/>
</g>
</svg>
