<svg width="24" height="25" viewBox="0 0 24 25" fill="none" xmlns="http://www.w3.org/2000/svg">
<path d="M20.84 5.11012C20.3292 4.59912 19.7228 4.19376 19.0554 3.9172C18.3879 3.64064 17.6725 3.49829 16.95 3.49829C16.2275 3.49829 15.5121 3.64064 14.8446 3.9172C14.1772 4.19376 13.5708 4.59912 13.06 5.11012L12 6.17012L10.94 5.11012C9.90831 4.07842 8.50903 3.49883 7.05 3.49883C5.59097 3.49883 4.19169 4.07842 3.16 5.11012C2.12831 6.14181 1.54871 7.54108 1.54871 9.00012C1.54871 10.4591 2.12831 11.8584 3.16 12.8901L4.22 13.9501L12 21.7301L19.78 13.9501L20.84 12.8901C21.351 12.3794 21.7564 11.7729 22.0329 11.1055C22.3095 10.438 22.4518 9.7226 22.4518 9.00012C22.4518 8.27763 22.3095 7.56222 22.0329 6.89476C21.7564 6.2273 21.351 5.62087 20.84 5.11012V5.11012Z" stroke="#F04438" stroke-width="1.5" stroke-linecap="round" stroke-linejoin="round"/>
</svg>
