<svg width="20" height="20" viewBox="0 0 20 20" fill="none" xmlns="http://www.w3.org/2000/svg">
<path d="M9.99984 10.8337C10.4601 10.8337 10.8332 10.4606 10.8332 10.0003C10.8332 9.54009 10.4601 9.16699 9.99984 9.16699C9.5396 9.16699 9.1665 9.54009 9.1665 10.0003C9.1665 10.4606 9.5396 10.8337 9.99984 10.8337Z" stroke="#4B5565" stroke-width="1.5" stroke-linecap="round" stroke-linejoin="round"/>
<path d="M9.99984 4.99967C10.4601 4.99967 10.8332 4.62658 10.8332 4.16634C10.8332 3.7061 10.4601 3.33301 9.99984 3.33301C9.5396 3.33301 9.1665 3.7061 9.1665 4.16634C9.1665 4.62658 9.5396 4.99967 9.99984 4.99967Z" stroke="#4B5565" stroke-width="1.5" stroke-linecap="round" stroke-linejoin="round"/>
<path d="M9.99984 16.6667C10.4601 16.6667 10.8332 16.2936 10.8332 15.8333C10.8332 15.3731 10.4601 15 9.99984 15C9.5396 15 9.1665 15.3731 9.1665 15.8333C9.1665 16.2936 9.5396 16.6667 9.99984 16.6667Z" stroke="#4B5565" stroke-width="1.5" stroke-linecap="round" stroke-linejoin="round"/>
</svg>
