<svg width="1204" height="1024" viewBox="0 0 1204 1024" fill="none" xmlns="http://www.w3.org/2000/svg">
<g opacity="0.08" clip-path="url(#clip0_68_2330)">
<path d="M1189.14 3.72243L1330.49 118.46L1419.59 8.6868L1189.14 3.72243Z" stroke="white" stroke-width="2" stroke-linejoin="round"/>
<path d="M1241.39 228.233L1330.49 118.46L1100.03 113.495L1241.39 228.233Z" stroke="white" stroke-width="2" stroke-linejoin="round"/>
<path d="M1382.75 342.97L1241.39 228.233L1293.65 452.743L1382.75 342.97Z" stroke="white" stroke-width="2" stroke-linejoin="round"/>
<path d="M1241.39 228.233L1100.03 113.495L1010.93 223.268L1241.39 228.233Z" stroke="white" stroke-width="2" stroke-linejoin="round"/>
<path d="M1063.19 447.779L1152.29 338.006L921.832 333.041L1063.19 447.779Z" stroke="white" stroke-width="2" stroke-linejoin="round"/>
<path d="M1293.65 452.743L1204.55 562.516L1152.29 338.006L1293.65 452.743Z" stroke="white" stroke-width="2" stroke-linejoin="round"/>
<path d="M1435 567.48L1204.55 562.516L1293.65 452.743L1435 567.48Z" stroke="white" stroke-width="2" stroke-linejoin="round"/>
<path d="M1278.24 -106.051L1189.14 3.72247L1047.78 -111.015L1278.24 -106.051Z" stroke="white" stroke-width="2" stroke-linejoin="round"/>
<path d="M1047.78 -111.015L906.421 -225.752L817.32 -115.979L1047.78 -111.015Z" stroke="white" stroke-width="2" stroke-linejoin="round"/>
<path d="M1100.03 113.495L958.677 -1.24192L1047.78 -111.015L1100.03 113.495Z" stroke="white" stroke-width="2" stroke-linejoin="round"/>
<path d="M639.118 103.566L586.863 -120.944L728.219 -6.20651L639.118 103.566Z" stroke="white" stroke-width="2" stroke-linejoin="round"/>
<path d="M1100.03 113.495L1055.48 168.382L1029.36 56.1267L1100.03 113.495Z" stroke="white" stroke-width="2" stroke-linejoin="round"/>
<path d="M958.677 -1.24194L1029.36 56.1267L984.805 111.013L958.677 -1.24194Z" stroke="white" stroke-width="2" stroke-linejoin="round"/>
<path d="M940.255 165.9L914.127 53.6445L869.576 108.531L940.255 165.9Z" stroke="white" stroke-width="2" stroke-linejoin="round"/>
<path d="M1010.93 223.268L1055.48 168.382L940.255 165.9L1010.93 223.268Z" stroke="white" stroke-width="2" stroke-linejoin="round"/>
<path d="M728.219 -6.20652L958.677 -1.24215L869.576 108.531L728.219 -6.20652Z" stroke="white" stroke-width="2" stroke-linejoin="round"/>
<path d="M780.475 218.304L869.576 108.531L728.219 -6.20654L780.475 218.304Z" stroke="white" stroke-width="2" stroke-linejoin="round"/>
<path d="M966.383 278.155L940.255 165.9L895.704 220.786L966.383 278.155Z" stroke="white" stroke-width="2" stroke-linejoin="round"/>
<path d="M895.704 220.786L940.255 165.9L869.576 108.531L895.704 220.786Z" stroke="white" stroke-width="2" stroke-linejoin="round"/>
<path d="M851.154 275.673L895.704 220.786L780.475 218.304L851.154 275.673Z" stroke="white" stroke-width="2" stroke-linejoin="round"/>
<path d="M851.154 275.673L921.832 333.041L895.704 220.786L851.154 275.673Z" stroke="white" stroke-width="2" stroke-linejoin="round"/>
<path d="M921.832 333.041L691.374 328.077L780.475 218.304L921.832 333.041Z" stroke="white" stroke-width="2" stroke-linejoin="round"/>
<path d="M735.925 273.19L709.797 160.935L665.246 215.822L735.925 273.19Z" stroke="white" stroke-width="2" stroke-linejoin="round"/>
<path d="M665.246 215.822L594.568 158.453L709.797 160.935L665.246 215.822Z" stroke="white" stroke-width="2" stroke-linejoin="round"/>
<path d="M620.696 270.708L550.017 213.34L665.246 215.822L620.696 270.708Z" stroke="white" stroke-width="2" stroke-linejoin="round"/>
<path d="M665.246 215.822L691.374 328.077L620.696 270.708L665.246 215.822Z" stroke="white" stroke-width="2" stroke-linejoin="round"/>
<path d="M691.374 328.077L550.017 213.34L460.916 323.113L691.374 328.077Z" stroke="white" stroke-width="2" stroke-linejoin="round"/>
<path d="M762.052 385.446L788.18 497.701L717.502 440.332L762.052 385.446Z" stroke="white" stroke-width="2" stroke-linejoin="round"/>
<path d="M762.052 385.446L717.502 440.332L691.374 328.077L762.052 385.446Z" stroke="white" stroke-width="2" stroke-linejoin="round"/>
<path d="M717.502 440.332L602.273 437.85L646.823 382.963L717.502 440.332Z" stroke="white" stroke-width="2" stroke-linejoin="round"/>
<path d="M743.63 552.587L788.18 497.701L717.502 440.332L743.63 552.587Z" stroke="white" stroke-width="2" stroke-linejoin="round"/>
<path d="M497.761 -11.1709L550.017 213.339L639.118 103.566L497.761 -11.1709Z" stroke="white" stroke-width="2" stroke-linejoin="round"/>
<path d="M267.303 -16.1352L356.404 -125.908L497.761 -11.1709L267.303 -16.1352Z" stroke="white" stroke-width="2" stroke-linejoin="round"/>
<path d="M319.559 208.375L408.66 98.6021L178.202 93.6377L319.559 208.375Z" stroke="white" stroke-width="2" stroke-linejoin="round"/>
<path d="M550.017 213.34L319.559 208.375L408.66 98.6023L550.017 213.34Z" stroke="white" stroke-width="2" stroke-linejoin="round"/>
<path d="M178.202 93.6377L460.916 323.112L-7.06272e-05 313.184L178.202 93.6377Z" stroke="white" stroke-width="2" stroke-linejoin="round"/>
<path d="M672.951 495.218L699.079 607.474L628.401 550.105L672.951 495.218Z" stroke="white" stroke-width="2" stroke-linejoin="round"/>
<path d="M672.951 495.219L628.401 550.105L557.722 492.736L672.951 495.219Z" stroke="white" stroke-width="2" stroke-linejoin="round"/>
<path d="M513.172 547.623L628.401 550.105L557.722 492.736L513.172 547.623Z" stroke="white" stroke-width="2" stroke-linejoin="round"/>
<path d="M699.079 607.474L583.85 604.991L654.529 662.36L699.079 607.474Z" stroke="white" stroke-width="2" stroke-linejoin="round"/>
<path d="M513.172 547.623L602.273 437.85L460.916 323.112L513.172 547.623Z" stroke="white" stroke-width="2" stroke-linejoin="round"/>
<path d="M371.815 432.885L282.714 542.658L513.172 547.623L371.815 432.885Z" stroke="white" stroke-width="2" stroke-linejoin="round"/>
<path d="M513.172 547.623L565.428 772.133L424.071 657.396L513.172 547.623Z" stroke="white" stroke-width="2" stroke-linejoin="round"/>
<path d="M1345.9 677.253L1256.8 787.026L1115.44 672.289L1345.9 677.253Z" stroke="white" stroke-width="2" stroke-linejoin="round"/>
<path d="M1026.34 782.062L1256.8 787.026L1167.7 896.799L1026.34 782.062Z" stroke="white" stroke-width="2" stroke-linejoin="round"/>
<path d="M1309.06 1011.54L1167.7 896.799L1398.16 901.764" stroke="white" stroke-width="2" stroke-linejoin="round"/>
<path d="M1063.19 447.779L974.088 557.552L1115.44 672.289L1063.19 447.779Z" stroke="white" stroke-width="2" stroke-linejoin="round"/>
<path d="M1018.64 502.665L947.96 445.296L992.511 390.41L1018.64 502.665Z" stroke="white" stroke-width="2" stroke-linejoin="round"/>
<path d="M992.51 390.41L877.281 387.928L921.832 333.041L992.51 390.41Z" stroke="white" stroke-width="2" stroke-linejoin="round"/>
<path d="M832.731 442.814L947.96 445.296L877.282 387.928L832.731 442.814Z" stroke="white" stroke-width="2" stroke-linejoin="round"/>
<path d="M947.96 445.296L974.088 557.552L1018.64 502.665L947.96 445.296Z" stroke="white" stroke-width="2" stroke-linejoin="round"/>
<path d="M743.63 552.587L974.088 557.552L832.731 442.814L743.63 552.587Z" stroke="white" stroke-width="2" stroke-linejoin="round"/>
<path d="M884.987 667.324L1115.44 672.289L974.088 557.552L884.987 667.324Z" stroke="white" stroke-width="2" stroke-linejoin="round"/>
<path d="M937.243 891.835L1026.34 782.062L884.987 667.324L937.243 891.835Z" stroke="white" stroke-width="2" stroke-linejoin="round"/>
<path d="M743.63 552.587L654.529 662.36L884.987 667.324L743.63 552.587Z" stroke="white" stroke-width="2" stroke-linejoin="round"/>
<path d="M706.785 886.87L795.886 777.097L654.529 662.36L706.785 886.87Z" stroke="white" stroke-width="2" stroke-linejoin="round"/>
<path d="M706.785 886.87L937.243 891.835L848.142 1001.61L706.785 886.87Z" stroke="white" stroke-width="2" stroke-linejoin="round"/>
<path d="M848.142 1001.61L1026.34 782.062L1309.06 1011.54L848.142 1001.61Z" stroke="white" stroke-width="2" stroke-linejoin="round"/>
</g>
<defs>
<clipPath id="clip0_68_2330">
<rect width="1456.49" height="1131.06" fill="white" transform="translate(712.809 -565) rotate(39.0657)"/>
</clipPath>
</defs>
</svg>
