<svg width="1323" height="1024" viewBox="0 0 1323 1024" fill="none" xmlns="http://www.w3.org/2000/svg">
<g opacity="0.08" clip-path="url(#clip0_68_2405)">
<path d="M1189.14 112.722L1330.49 227.46L1419.59 117.687L1189.14 112.722Z" stroke="white" stroke-width="2" stroke-linejoin="round"/>
<path d="M1241.39 337.233L1330.49 227.46L1100.03 222.495L1241.39 337.233Z" stroke="white" stroke-width="2" stroke-linejoin="round"/>
<path d="M1471.85 342.197L1382.75 451.97L1330.49 227.46L1471.85 342.197Z" stroke="white" stroke-width="2" stroke-linejoin="round"/>
<path d="M1382.75 451.97L1241.39 337.233L1293.65 561.743L1382.75 451.97Z" stroke="white" stroke-width="2" stroke-linejoin="round"/>
<path d="M1241.39 337.233L1100.03 222.495L1010.93 332.268L1241.39 337.233Z" stroke="white" stroke-width="2" stroke-linejoin="round"/>
<path d="M1063.19 556.779L1152.29 447.006L921.832 442.041L1063.19 556.779Z" stroke="white" stroke-width="2" stroke-linejoin="round"/>
<path d="M1293.65 561.743L1204.55 671.516L1152.29 447.006L1293.65 561.743Z" stroke="white" stroke-width="2" stroke-linejoin="round"/>
<path d="M1435 676.48L1382.75 451.97L1293.65 561.743L1435 676.48Z" stroke="white" stroke-width="2" stroke-linejoin="round"/>
<path d="M1435 676.48L1204.55 671.516L1293.65 561.743L1435 676.48Z" stroke="white" stroke-width="2" stroke-linejoin="round"/>
<path d="M1278.24 2.9495L1189.14 112.722L1047.78 -2.01487L1278.24 2.9495Z" stroke="white" stroke-width="2" stroke-linejoin="round"/>
<path d="M1047.78 -2.0151L906.422 -116.752L817.321 -6.97947L1047.78 -2.0151Z" stroke="white" stroke-width="2" stroke-linejoin="round"/>
<path d="M1100.03 222.495L958.678 107.758L1047.78 -2.01489L1100.03 222.495Z" stroke="white" stroke-width="2" stroke-linejoin="round"/>
<path d="M817.321 -6.97946L728.22 102.794L586.863 -11.9438L817.321 -6.97946Z" stroke="white" stroke-width="2" stroke-linejoin="round"/>
<path d="M445.506 -126.681L586.863 -11.9438L356.405 -16.9082L445.506 -126.681Z" stroke="white" stroke-width="2" stroke-linejoin="round"/>
<path d="M639.119 212.566L586.863 -11.9438L728.22 102.793L639.119 212.566Z" stroke="white" stroke-width="2" stroke-linejoin="round"/>
<path d="M1100.03 222.495L1055.48 277.382L1029.36 165.127L1100.03 222.495Z" stroke="white" stroke-width="2" stroke-linejoin="round"/>
<path d="M958.678 107.758L1029.36 165.127L984.806 220.013L958.678 107.758Z" stroke="white" stroke-width="2" stroke-linejoin="round"/>
<path d="M940.255 274.9L914.127 162.645L869.576 217.531L940.255 274.9Z" stroke="white" stroke-width="2" stroke-linejoin="round"/>
<path d="M1010.93 332.268L1055.48 277.382L940.255 274.9L1010.93 332.268Z" stroke="white" stroke-width="2" stroke-linejoin="round"/>
<path d="M728.22 102.793L958.678 107.758L869.577 217.531L728.22 102.793Z" stroke="white" stroke-width="2" stroke-linejoin="round"/>
<path d="M780.476 327.304L869.577 217.531L728.22 102.793L780.476 327.304Z" stroke="white" stroke-width="2" stroke-linejoin="round"/>
<path d="M966.383 387.155L940.255 274.9L895.704 329.786L966.383 387.155Z" stroke="white" stroke-width="2" stroke-linejoin="round"/>
<path d="M895.705 329.786L940.255 274.9L869.577 217.531L895.705 329.786Z" stroke="white" stroke-width="2" stroke-linejoin="round"/>
<path d="M851.154 384.673L895.704 329.786L780.475 327.304L851.154 384.673Z" stroke="white" stroke-width="2" stroke-linejoin="round"/>
<path d="M851.154 384.673L921.832 442.041L895.705 329.786L851.154 384.673Z" stroke="white" stroke-width="2" stroke-linejoin="round"/>
<path d="M921.833 442.041L691.374 437.077L780.476 327.304L921.833 442.041Z" stroke="white" stroke-width="2" stroke-linejoin="round"/>
<path d="M735.925 382.19L709.797 269.935L665.246 324.822L735.925 382.19Z" stroke="white" stroke-width="2" stroke-linejoin="round"/>
<path d="M665.247 324.822L594.568 267.453L709.797 269.935L665.247 324.822Z" stroke="white" stroke-width="2" stroke-linejoin="round"/>
<path d="M620.696 379.708L550.017 322.34L665.246 324.822L620.696 379.708Z" stroke="white" stroke-width="2" stroke-linejoin="round"/>
<path d="M665.247 324.822L691.374 437.077L620.696 379.708L665.247 324.822Z" stroke="white" stroke-width="2" stroke-linejoin="round"/>
<path d="M691.374 437.077L550.018 322.34L460.916 432.113L691.374 437.077Z" stroke="white" stroke-width="2" stroke-linejoin="round"/>
<path d="M762.053 494.446L788.181 606.701L717.502 549.332L762.053 494.446Z" stroke="white" stroke-width="2" stroke-linejoin="round"/>
<path d="M762.053 494.446L717.502 549.332L691.375 437.077L762.053 494.446Z" stroke="white" stroke-width="2" stroke-linejoin="round"/>
<path d="M717.502 549.332L602.273 546.85L646.824 491.963L717.502 549.332Z" stroke="white" stroke-width="2" stroke-linejoin="round"/>
<path d="M743.63 661.587L788.18 606.701L717.502 549.332L743.63 661.587Z" stroke="white" stroke-width="2" stroke-linejoin="round"/>
<path d="M497.762 97.8291L550.018 322.339L639.119 212.566L497.762 97.8291Z" stroke="white" stroke-width="2" stroke-linejoin="round"/>
<path d="M267.304 92.8648L356.405 -16.9082L497.762 97.8291L267.304 92.8648Z" stroke="white" stroke-width="2" stroke-linejoin="round"/>
<path d="M319.56 317.375L408.661 207.602L178.203 202.638L319.56 317.375Z" stroke="white" stroke-width="2" stroke-linejoin="round"/>
<path d="M550.018 322.34L319.56 317.375L408.661 207.602L550.018 322.34Z" stroke="white" stroke-width="2" stroke-linejoin="round"/>
<path d="M178.203 202.638L460.916 432.112L0.000417654 422.184L178.203 202.638Z" stroke="white" stroke-width="2" stroke-linejoin="round"/>
<path d="M672.952 604.218L699.08 716.474L628.401 659.105L672.952 604.218Z" stroke="white" stroke-width="2" stroke-linejoin="round"/>
<path d="M672.952 604.218L628.401 659.105L557.723 601.736L672.952 604.218Z" stroke="white" stroke-width="2" stroke-linejoin="round"/>
<path d="M513.172 656.623L628.401 659.105L557.723 601.736L513.172 656.623Z" stroke="white" stroke-width="2" stroke-linejoin="round"/>
<path d="M699.079 716.474L583.85 713.991L654.529 771.36L699.079 716.474Z" stroke="white" stroke-width="2" stroke-linejoin="round"/>
<path d="M513.172 656.623L602.273 546.85L460.917 432.112L513.172 656.623Z" stroke="white" stroke-width="2" stroke-linejoin="round"/>
<path d="M371.815 541.885L282.714 651.658L513.172 656.623L371.815 541.885Z" stroke="white" stroke-width="2" stroke-linejoin="round"/>
<path d="M513.172 656.623L565.428 881.133L424.071 766.396L513.172 656.623Z" stroke="white" stroke-width="2" stroke-linejoin="round"/>
<path d="M1487.26 900.991L1345.9 786.253L1398.16 1010.76" stroke="white" stroke-width="2" stroke-linejoin="round"/>
<path d="M1345.9 786.253L1256.8 896.026L1115.45 781.289L1345.9 786.253Z" stroke="white" stroke-width="2" stroke-linejoin="round"/>
<path d="M1026.34 891.062L1256.8 896.026L1167.7 1005.8L1026.34 891.062Z" stroke="white" stroke-width="2" stroke-linejoin="round"/>
<path d="M1309.06 1120.54L1167.7 1005.8L1398.16 1010.76" stroke="white" stroke-width="2" stroke-linejoin="round"/>
<path d="M1063.19 556.779L974.088 666.552L1115.45 781.289L1063.19 556.779Z" stroke="white" stroke-width="2" stroke-linejoin="round"/>
<path d="M1018.64 611.665L947.96 554.296L992.511 499.41L1018.64 611.665Z" stroke="white" stroke-width="2" stroke-linejoin="round"/>
<path d="M992.511 499.41L877.282 496.928L921.833 442.041L992.511 499.41Z" stroke="white" stroke-width="2" stroke-linejoin="round"/>
<path d="M832.731 551.814L947.96 554.296L877.282 496.928L832.731 551.814Z" stroke="white" stroke-width="2" stroke-linejoin="round"/>
<path d="M947.96 554.296L974.088 666.552L1018.64 611.665L947.96 554.296Z" stroke="white" stroke-width="2" stroke-linejoin="round"/>
<path d="M743.63 661.587L974.088 666.552L832.731 551.814L743.63 661.587Z" stroke="white" stroke-width="2" stroke-linejoin="round"/>
<path d="M884.987 776.324L1115.44 781.289L974.088 666.552L884.987 776.324Z" stroke="white" stroke-width="2" stroke-linejoin="round"/>
<path d="M937.243 1000.83L1026.34 891.062L884.987 776.324L937.243 1000.83Z" stroke="white" stroke-width="2" stroke-linejoin="round"/>
<path d="M743.63 661.587L654.529 771.36L884.987 776.324L743.63 661.587Z" stroke="white" stroke-width="2" stroke-linejoin="round"/>
<path d="M706.785 995.87L795.886 886.097L654.529 771.36L706.785 995.87Z" stroke="white" stroke-width="2" stroke-linejoin="round"/>
<path d="M706.785 995.87L937.243 1000.83L848.142 1110.61L706.785 995.87Z" stroke="white" stroke-width="2" stroke-linejoin="round"/>
<path d="M848.142 1110.61L1026.34 891.062L1309.06 1120.54L848.142 1110.61Z" stroke="white" stroke-width="2" stroke-linejoin="round"/>
</g>
<defs>
<clipPath id="clip0_68_2405">
<rect width="1456.49" height="1131.06" fill="white" transform="translate(712.809 -456) rotate(39.0657)"/>
</clipPath>
</defs>
</svg>
