<svg width="15" height="14" viewBox="0 0 15 14" fill="none" xmlns="http://www.w3.org/2000/svg">
<path id="Vector" d="M13.4297 7.99219H8.42969V12.9922C8.42969 13.5422 7.97969 13.9922 7.42969 13.9922C6.87969 13.9922 6.42969 13.5422 6.42969 12.9922V7.99219H1.42969C0.879687 7.99219 0.429688 7.54219 0.429688 6.99219C0.429688 6.44219 0.879687 5.99219 1.42969 5.99219H6.42969V0.992188C6.42969 0.442187 6.87969 -0.0078125 7.42969 -0.0078125C7.97969 -0.0078125 8.42969 0.442187 8.42969 0.992188V5.99219H13.4297C13.9797 5.99219 14.4297 6.44219 14.4297 6.99219C14.4297 7.54219 13.9797 7.99219 13.4297 7.99219Z" fill="black"/>
</svg>
