<svg width="12" height="12" viewBox="0 0 12 12" fill="none" xmlns="http://www.w3.org/2000/svg">
<path id="Vector" d="M0.429688 10.2788C0.429688 11.2305 1.15746 11.9583 2.10917 11.9583H9.94674C10.8984 11.9583 11.6262 11.2305 11.6262 10.2788V5.80016H0.429688V10.2788ZM9.94674 1.88137H8.82709V1.32155C8.82709 0.985649 8.60316 0.761719 8.26726 0.761719C7.93137 0.761719 7.70744 0.985649 7.70744 1.32155V1.88137H4.34848V1.32155C4.34848 0.985649 4.12454 0.761719 3.78865 0.761719C3.45275 0.761719 3.22882 0.985649 3.22882 1.32155V1.88137H2.10917C1.15746 1.88137 0.429688 2.60915 0.429688 3.56085V4.68051H11.6262V3.56085C11.6262 2.60915 10.8984 1.88137 9.94674 1.88137Z" fill="#A6A7B3"/>
</svg>
