<svg xmlns="http://www.w3.org/2000/svg" width="221" height="42" viewBox="0 0 221 42" fill="none">
  <path d="M73.7293 34.2745V27.6232H64.3352L73.7293 10.76V4.62793H55.1133V11.2792H65.2697L55.1133 29.3045V34.2745H73.7293ZM87.2794 35.0162C89.5419 35.0162 91.7305 34.3239 93.5749 33.0134C95.4439 31.7277 96.9932 29.7991 98.0752 27.3264H91.3125C90.4026 28.4886 89.3205 29.4034 87.2794 29.4034C84.6973 29.4034 82.5086 27.8457 82.0905 25.2H98.6654C98.7392 24.6808 98.813 24.3099 98.813 23.4445C98.813 16.6695 93.87 11.304 87.1319 11.304C80.3937 11.304 75.5491 17.0404 75.5491 23.2466C75.5737 29.8485 80.9347 35.0162 87.2794 35.0162ZM92.2224 20.6999H82.1889C82.4594 19.3894 83.7874 16.8921 87.2056 16.8921C90.6239 16.8921 91.9519 19.3894 92.2224 20.6999ZM109.117 34.2745V22.1834C109.117 20.8235 109.117 17.5349 112.904 17.5349C116.15 17.5349 116.347 20.2053 116.372 21.8373V34.2745H122.987V20.3784C122.987 16.0019 121.634 14.2464 120.429 13.2079C119.224 12.1694 116.888 11.2792 114.773 11.2792C110.838 11.2792 109.437 13.3315 108.748 14.3947H108.674V12.021H102.502V34.2497H109.117V34.2745ZM137.717 35.0162C142.168 35.0162 143.767 32.8156 144.332 31.9008H144.406V34.2992H150.726V4.62793H144.111V13.9249C143.398 13.2079 141.529 11.2792 137.619 11.2792C132.012 11.2792 126.651 15.5568 126.651 23.0983C126.651 29.7991 131.028 35.0162 137.717 35.0162ZM138.799 28.7853C135.701 28.7853 133.266 26.5105 133.266 23.0488C133.266 20.4773 135.061 17.4855 138.873 17.4855C142.537 17.4855 144.455 20.3784 144.455 23.0488C144.455 25.3978 142.955 28.7853 138.799 28.7853ZM162.063 34.2745V22.0598C162.063 18.6971 164.203 18.0542 167.277 17.98V11.2792C163.44 11.2792 162.285 13.3315 161.744 14.3947H161.67V12.021H155.448V34.2497H162.063V34.2745ZM180.827 34.9668C188.868 34.9668 192.729 28.5875 192.729 23.1477C192.729 17.708 188.868 11.3287 180.827 11.3287C172.785 11.3287 168.924 17.708 168.924 23.1477C168.924 28.5875 172.785 34.9668 180.827 34.9668ZM180.827 28.7606C177.95 28.7606 175.54 26.3869 175.54 23.1477C175.54 19.9086 177.974 17.5349 180.827 17.5349C183.704 17.5349 186.114 19.9086 186.114 23.1477C186.114 26.3869 183.704 28.7606 180.827 28.7606ZM203.107 41.6923V32.2717C203.894 33.1123 205.788 35.041 209.771 35.041C216.067 35.041 220.518 29.7991 220.518 23.395C220.518 18.2273 217.567 11.304 209.722 11.304C206.329 11.304 204.14 12.837 202.837 14.5184H202.714V12.0705H196.492V41.717H203.107V41.6923ZM208.37 28.8347C204.902 28.8347 202.837 25.9912 202.837 23.1972C202.837 20.5515 204.755 17.5102 208.37 17.5102C211.985 17.5102 213.903 20.5515 213.903 23.1972C213.903 25.9912 211.837 28.8347 208.37 28.8347Z" fill="#212240"/>
  <path d="M27.8847 0.303569C31.303 0.353021 33.9097 2.15802 34.8934 5.39714C35.6557 7.91919 35.1639 10.2929 33.467 12.3699C27.7863 19.3179 22.1056 26.2659 16.4249 33.2139C15.392 34.4997 14.3346 35.7607 13.2525 36.997C10.6212 40.0631 6.1455 40.5329 3.21907 38.1097C0.0467213 35.464 -0.445116 31.0133 2.16162 27.7742C5.33397 23.818 8.60468 19.8866 11.8016 15.9552C11.9984 15.7079 12.0721 15.3865 12.2197 15.0898C11.8754 14.9908 11.5557 14.793 11.2114 14.793C10.0556 14.7436 8.89979 14.6941 7.74397 14.7436C3.80927 14.8672 0.538558 11.7765 0.489374 7.64721C0.464783 3.54268 3.56336 0.402473 7.74397 0.303569C11.1376 0.229391 14.5313 0.278843 17.925 0.278843C21.2449 0.303569 24.5648 0.278843 27.8847 0.303569Z" fill="url(#paint0_linear_250_79)"/>
  <path opacity="0.5" d="M24.0006 33.5844C24.0744 32.4717 24.4187 31.4579 25.1072 30.5925C27.0746 28.1446 28.3042 26.6116 30.3699 24.3121C31.1322 23.4714 31.7225 23.867 31.993 24.5346C33.198 27.5018 33.8619 29.282 34.9194 32.3234C36.1244 35.785 33.4439 39.5434 29.7797 39.6175C29.4354 39.6175 29.0911 39.5928 28.7222 39.5928C25.845 39.1477 23.7793 36.5515 24.0006 33.5844Z" fill="#8472ED"/>
  <defs>
    <linearGradient id="paint0_linear_250_79" x1="19.855" y1="22.9596" x2="-1.42841" y2="-2.05871" gradientUnits="userSpaceOnUse">
      <stop stop-color="#8472ED"/>
      <stop offset="1" stop-color="#B786F6"/>
    </linearGradient>
  </defs>
</svg>