<svg width="18" height="18" viewBox="0 0 18 18" fill="none" xmlns="http://www.w3.org/2000/svg">
<path id="Vector" d="M0.104502 8.9726C0.10494 7.0564 0.735094 5.19343 1.89798 3.67043C3.06087 2.14742 4.69204 1.04878 6.54046 0.543596C8.38887 0.0384075 10.3521 0.154667 12.128 0.874483C13.9038 1.5943 15.3939 2.87777 16.3689 4.52738C17.3439 6.17699 17.7498 8.10131 17.5241 10.0042C17.2984 11.907 16.4536 13.683 15.1197 15.0587C13.7858 16.4344 12.0368 17.3337 10.1418 17.618C8.24679 17.9024 6.31086 17.5561 4.63194 16.6325L1.23374 17.6674C1.08217 17.7136 0.920896 17.7176 0.767174 17.6792C0.613452 17.6408 0.473063 17.5614 0.361023 17.4493C0.248984 17.3373 0.169508 17.1969 0.131098 17.0432C0.0926877 16.8894 0.0967875 16.7282 0.142959 16.5766L1.1778 13.1732C0.471512 11.8859 0.102295 10.4409 0.104502 8.9726ZM5.34864 8.09858C5.34864 8.33039 5.44072 8.5527 5.60463 8.71661C5.76854 8.88052 5.99085 8.9726 6.22266 8.9726H11.4668C11.6986 8.9726 11.9209 8.88052 12.0848 8.71661C12.2487 8.5527 12.3408 8.33039 12.3408 8.09858C12.3408 7.86678 12.2487 7.64446 12.0848 7.48055C11.9209 7.31664 11.6986 7.22456 11.4668 7.22456H6.22266C5.99085 7.22456 5.76854 7.31664 5.60463 7.48055C5.44072 7.64446 5.34864 7.86678 5.34864 8.09858ZM6.22266 10.7206C5.99085 10.7206 5.76854 10.8127 5.60463 10.9766C5.44072 11.1406 5.34864 11.3629 5.34864 11.5947C5.34864 11.8265 5.44072 12.0488 5.60463 12.2127C5.76854 12.3766 5.99085 12.4687 6.22266 12.4687H9.71875C9.95055 12.4687 10.1729 12.3766 10.3368 12.2127C10.5007 12.0488 10.5928 11.8265 10.5928 11.5947C10.5928 11.3629 10.5007 11.1406 10.3368 10.9766C10.1729 10.8127 9.95055 10.7206 9.71875 10.7206H6.22266Z" fill="#8473EE"/>
</svg>
