<svg width="17" height="16" viewBox="0 0 17 16" fill="none" xmlns="http://www.w3.org/2000/svg">
<path id="Vector" d="M14.5017 0.785156C14.9504 0.785156 15.3807 0.96338 15.6979 1.28062C16.0151 1.59786 16.1934 2.02813 16.1934 2.47678V14.3181C16.1934 14.7668 16.0151 15.1971 15.6979 15.5143C15.3807 15.8315 14.9504 16.0098 14.5017 16.0098H2.66037C2.21173 16.0098 1.78146 15.8315 1.46421 15.5143C1.14697 15.1971 0.96875 14.7668 0.96875 14.3181V2.47678C0.96875 2.02813 1.14697 1.59786 1.46421 1.28062C1.78146 0.96338 2.21173 0.785156 2.66037 0.785156H14.5017ZM12.5564 6.15606C12.7424 5.97844 12.7424 5.68241 12.5564 5.50479L11.4737 4.42215C11.4317 4.37808 11.3812 4.343 11.3252 4.31904C11.2692 4.29507 11.209 4.28271 11.1481 4.28271C11.0872 4.28271 11.0269 4.29507 10.971 4.31904C10.915 4.343 10.8645 4.37808 10.8225 4.42215L9.97664 5.26796L11.7106 7.00187L12.5564 6.15606ZM4.352 10.8841V12.6265H6.09437L11.22 7.5009L9.47762 5.75853L4.352 10.8841Z" fill="#8472ED"/>
</svg>
