<svg width="17" height="16" viewBox="0 0 17 16" fill="none" xmlns="http://www.w3.org/2000/svg">
<path id="Vector" d="M14.5037 0.621094C14.9523 0.621094 15.3826 0.799318 15.6998 1.11656C16.0171 1.4338 16.1953 1.86407 16.1953 2.31272V14.1541C16.1953 14.6027 16.0171 15.033 15.6998 15.3502C15.3826 15.6675 14.9523 15.8457 14.5037 15.8457H2.66233C2.21368 15.8457 1.78341 15.6675 1.46617 15.3502C1.14893 15.033 0.970703 14.6027 0.970703 14.1541V2.31272C0.970703 1.86407 1.14893 1.4338 1.46617 1.11656C1.78341 0.799318 2.21368 0.621094 2.66233 0.621094H14.5037ZM12.5583 5.992C12.7444 5.81438 12.7444 5.51834 12.5583 5.34072L11.4757 4.25808C11.4337 4.21402 11.3831 4.17894 11.3272 4.15498C11.2712 4.13101 11.2109 4.11865 11.15 4.11865C11.0892 4.11865 11.0289 4.13101 10.9729 4.15498C10.917 4.17894 10.8664 4.21402 10.8244 4.25808L9.9786 5.1039L11.7125 6.83781L12.5583 5.992ZM4.35395 10.7201V12.4625H6.09632L11.2219 7.33684L9.47957 5.59447L4.35395 10.7201Z" fill="white"/>
</svg>
