<svg width="19" height="15" viewBox="0 0 19 15" fill="none" xmlns="http://www.w3.org/2000/svg">
<g id="Vector">
<path fill-rule="evenodd" clip-rule="evenodd" d="M0.211914 9.19531C0.211914 8.9301 0.317271 8.67574 0.504807 8.48821C0.692344 8.30067 0.946698 8.19531 1.21191 8.19531H13.2119C14.0076 8.19531 14.7706 7.87924 15.3332 7.31663C15.8958 6.75402 16.2119 5.99096 16.2119 5.19531V1.19531C16.2119 0.930096 16.3173 0.675742 16.5048 0.488206C16.6923 0.30067 16.9467 0.195312 17.2119 0.195312C17.4771 0.195312 17.7315 0.30067 17.919 0.488206C18.1066 0.675742 18.2119 0.930096 18.2119 1.19531V5.19531C18.2119 6.52139 17.6851 7.79316 16.7474 8.73085C15.8098 9.66853 14.538 10.1953 13.2119 10.1953H1.21191C0.946698 10.1953 0.692344 10.09 0.504807 9.90242C0.317271 9.71488 0.211914 9.46053 0.211914 9.19531Z" fill="#8473EE"/>
<path fill-rule="evenodd" clip-rule="evenodd" d="M0.504807 9.90242C0.317271 9.71488 0.211914 9.46053 0.211914 9.19531C0.211914 8.9301 0.317271 8.67574 0.504807 8.48821L4.5047 4.48835C4.6933 4.3062 4.9459 4.2054 5.2081 4.20768C5.4703 4.20996 5.72111 4.31513 5.90652 4.50053C6.09193 4.68594 6.1971 4.93676 6.19937 5.19895C6.20165 5.46115 6.10086 5.71375 5.9187 5.90235L2.6257 9.19535L5.9187 12.4884C6.01421 12.5806 6.09039 12.6909 6.1428 12.8129C6.19521 12.935 6.2228 13.0662 6.22395 13.199C6.22511 13.3317 6.1998 13.4634 6.14952 13.5863C6.09924 13.7092 6.02499 13.8209 5.9311 13.9147C5.8372 14.0086 5.72555 14.0829 5.60265 14.1332C5.47976 14.1835 5.34808 14.2088 5.2153 14.2076C5.08252 14.2065 4.9513 14.1789 4.8293 14.1265C4.70729 14.074 4.59695 13.9979 4.5047 13.9024L0.504807 9.90242Z" fill="#8473EE"/>
</g>
</svg>
