<svg width="13" height="13" viewBox="0 0 13 13" fill="none" xmlns="http://www.w3.org/2000/svg">
<path id="Vector" d="M6.84769 0.292969C5.64825 0.292969 4.47574 0.648645 3.47844 1.31502C2.48114 1.98139 1.70384 2.92853 1.24484 4.03667C0.785831 5.14481 0.665734 6.36418 0.899733 7.54057C1.13373 8.71697 1.71132 9.79756 2.55945 10.6457C3.40759 11.4938 4.48817 12.0714 5.66457 12.3054C6.84096 12.5394 8.06033 12.4193 9.16847 11.9603C10.2766 11.5013 11.2237 10.724 11.8901 9.7267C12.5565 8.7294 12.9122 7.55689 12.9122 6.35745C12.9105 4.74957 12.271 3.20803 11.1341 2.07109C9.99711 0.934147 8.45557 0.294667 6.84769 0.292969ZM10.1132 6.82395H6.84769C6.72397 6.82395 6.60531 6.7748 6.51782 6.68732C6.43034 6.59983 6.38119 6.48117 6.38119 6.35745V3.09196C6.38119 2.96824 6.43034 2.84958 6.51782 2.7621C6.60531 2.67461 6.72397 2.62546 6.84769 2.62546C6.97141 2.62546 7.09007 2.67461 7.17755 2.7621C7.26504 2.84958 7.31419 2.96824 7.31419 3.09196V5.89095H10.1132C10.2369 5.89095 10.3556 5.9401 10.443 6.02759C10.5305 6.11507 10.5797 6.23373 10.5797 6.35745C10.5797 6.48117 10.5305 6.59983 10.443 6.68732C10.3556 6.7748 10.2369 6.82395 10.1132 6.82395Z" fill="#A6A7B3"/>
</svg>
