<svg xmlns="http://www.w3.org/2000/svg" width="17" height="10" viewBox="0 0 17 10" fill="none">
  <path d="M1.23723 0.694253C1.11472 0.815767 1.01747 0.960338 0.951113 1.11962C0.884752 1.27891 0.850586 1.44976 0.850586 1.62231C0.850586 1.79487 0.884752 1.96572 0.951113 2.125C1.01747 2.28429 1.11472 2.42886 1.23723 2.55037L7.77287 9.08601C7.89438 9.20852 8.03895 9.30577 8.19824 9.37213C8.35752 9.43849 8.52837 9.47266 8.70093 9.47266C8.87348 9.47266 9.04433 9.43849 9.20362 9.37213C9.3629 9.30577 9.50747 9.20852 9.62899 9.08601L16.1646 2.55037C16.2871 2.42886 16.3844 2.28429 16.4507 2.125C16.5171 1.96572 16.5513 1.79487 16.5513 1.62231C16.5513 1.44976 16.5171 1.27891 16.4507 1.11962C16.3844 0.960337 16.2871 0.815767 16.1646 0.694252C16.0431 0.571738 15.8985 0.474495 15.7393 0.408134C15.58 0.341773 15.4091 0.307607 15.2366 0.307607C15.064 0.307607 14.8932 0.341773 14.7339 0.408134C14.5746 0.474495 14.43 0.571738 14.3085 0.694252L8.70093 6.3149L3.09335 0.694253C2.97184 0.571738 2.82727 0.474496 2.66798 0.408134C2.5087 0.341774 2.33785 0.307608 2.16529 0.307608C1.99274 0.307608 1.82189 0.341774 1.6626 0.408134C1.50332 0.474496 1.35875 0.571738 1.23723 0.694253Z" fill="#4C37C8"/>
</svg>