<svg width="731" height="1207" viewBox="0 0 731 1207" fill="none" xmlns="http://www.w3.org/2000/svg">
<g opacity="0.2" clip-path="url(#clip0_27_323)">
<path d="M730.498 616.607L575.686 613.272L670.644 690.348" stroke="white" stroke-width="2" stroke-linejoin="round"/>
<path d="M480.728 536.196L540.583 462.455L575.686 613.272L480.728 536.196Z" stroke="white" stroke-width="2" stroke-linejoin="round"/>
<path d="M420.874 609.937L575.686 613.272L515.832 687.013L420.874 609.937Z" stroke="white" stroke-width="2" stroke-linejoin="round"/>
<path d="M575.686 613.272L515.832 687.013L670.644 690.348L575.686 613.272Z" stroke="white" stroke-width="2" stroke-linejoin="round"/>
<path d="M445.625 385.379L480.728 536.196L385.77 459.12L445.625 385.379Z" stroke="white" stroke-width="2" stroke-linejoin="round"/>
<path d="M290.813 382.044L385.77 459.12L445.625 385.379L290.813 382.044Z" stroke="white" stroke-width="2" stroke-linejoin="round"/>
<path d="M325.916 532.861L385.77 459.12L230.958 455.785L325.916 532.861Z" stroke="white" stroke-width="2" stroke-linejoin="round"/>
<path d="M480.728 536.196L420.874 609.937L385.77 459.12L480.728 536.196Z" stroke="white" stroke-width="2" stroke-linejoin="round"/>
<path d="M420.874 609.937L325.916 532.861L361.019 683.678L420.874 609.937Z" stroke="white" stroke-width="2" stroke-linejoin="round"/>
<path d="M325.916 532.861L230.958 455.785L171.104 529.526L325.916 532.861Z" stroke="white" stroke-width="2" stroke-linejoin="round"/>
<path d="M206.207 680.343L266.061 606.602L111.249 603.267L206.207 680.343Z" stroke="white" stroke-width="2" stroke-linejoin="round"/>
<path d="M361.019 683.678L301.165 757.419L266.061 606.602L361.019 683.678Z" stroke="white" stroke-width="2" stroke-linejoin="round"/>
<path d="M515.832 687.013L550.935 837.83L610.789 764.089L515.832 687.013Z" stroke="white" stroke-width="2" stroke-linejoin="round"/>
<path d="M455.977 760.754L420.874 609.937L361.019 683.678L455.977 760.754Z" stroke="white" stroke-width="2" stroke-linejoin="round"/>
<path d="M455.977 760.754L301.165 757.419L361.019 683.678L455.977 760.754Z" stroke="white" stroke-width="2" stroke-linejoin="round"/>
<path d="M491.08 911.571L455.977 760.754L550.935 837.83" stroke="white" stroke-width="2" stroke-linejoin="round"/>
<path d="M350.667 308.303L290.813 382.044L195.855 304.969L350.667 308.303Z" stroke="white" stroke-width="2" stroke-linejoin="round"/>
<path d="M255.709 231.227L160.751 154.152L100.897 227.893L255.709 231.227Z" stroke="white" stroke-width="2" stroke-linejoin="round"/>
<path d="M195.855 304.969L100.897 227.893L41.0425 301.634L195.855 304.969Z" stroke="white" stroke-width="2" stroke-linejoin="round"/>
<path d="M230.958 455.785L136 378.709L195.855 304.969L230.958 455.785Z" stroke="white" stroke-width="2" stroke-linejoin="round"/>
<path d="M160.751 154.152L-148.873 147.482L41.0425 301.634L160.751 154.152Z" stroke="white" stroke-width="2" stroke-linejoin="round"/>
<path d="M41.0425 301.634L-18.812 375.375L-113.77 298.299L41.0425 301.634Z" stroke="white" stroke-width="2" stroke-linejoin="round"/>
<path d="M230.958 455.785L201.031 492.656L183.479 417.248L230.958 455.785Z" stroke="white" stroke-width="2" stroke-linejoin="round"/>
<path d="M136 378.709L183.479 417.247L153.552 454.118L136 378.709Z" stroke="white" stroke-width="2" stroke-linejoin="round"/>
<path d="M123.625 490.989L106.073 415.58L76.1458 452.451L123.625 490.989Z" stroke="white" stroke-width="2" stroke-linejoin="round"/>
<path d="M171.104 529.526L201.031 492.656L123.625 490.988L171.104 529.526Z" stroke="white" stroke-width="2" stroke-linejoin="round"/>
<path d="M-18.812 375.375L136 378.71L76.1458 452.451L-18.812 375.375Z" stroke="white" stroke-width="2" stroke-linejoin="round"/>
<path d="M16.2914 526.192L76.1459 452.451L-18.812 375.375L16.2914 526.192Z" stroke="white" stroke-width="2" stroke-linejoin="round"/>
<path d="M141.176 566.397L123.625 490.989L93.6975 527.859L141.176 566.397Z" stroke="white" stroke-width="2" stroke-linejoin="round"/>
<path d="M93.6975 527.859L123.625 490.988L76.1459 452.45L93.6975 527.859Z" stroke="white" stroke-width="2" stroke-linejoin="round"/>
<path d="M63.7703 564.729L93.6975 527.859L16.2914 526.192L63.7703 564.729Z" stroke="white" stroke-width="2" stroke-linejoin="round"/>
<path d="M63.7703 564.729L111.249 603.267L93.6975 527.859L63.7703 564.729Z" stroke="white" stroke-width="2" stroke-linejoin="round"/>
<path d="M111.249 603.268L-43.5631 599.933L16.2914 526.192L111.249 603.268Z" stroke="white" stroke-width="2" stroke-linejoin="round"/>
<path d="M-13.6359 563.062L-31.1876 487.654L-61.1148 524.524L-13.6359 563.062Z" stroke="white" stroke-width="2" stroke-linejoin="round"/>
<path d="M3.91577 638.47L21.4674 713.879L-26.0115 675.341L3.91577 638.47Z" stroke="white" stroke-width="2" stroke-linejoin="round"/>
<path d="M3.91579 638.471L-26.0114 675.341L-43.5631 599.933L3.91579 638.471Z" stroke="white" stroke-width="2" stroke-linejoin="round"/>
<path d="M-8.45981 750.749L21.4674 713.879L-26.0115 675.341L-8.45981 750.749Z" stroke="white" stroke-width="2" stroke-linejoin="round"/>
<path d="M491.08 911.571L396.123 834.495L431.226 985.312" stroke="white" stroke-width="2" stroke-linejoin="round"/>
<path d="M396.123 834.495L336.268 908.236L241.31 831.16L396.123 834.495Z" stroke="white" stroke-width="2" stroke-linejoin="round"/>
<path d="M181.456 904.901L336.268 908.236L276.414 981.977L181.456 904.901Z" stroke="white" stroke-width="2" stroke-linejoin="round"/>
<path d="M371.371 1059.05L276.414 981.977L431.226 985.312" stroke="white" stroke-width="2" stroke-linejoin="round"/>
<path d="M206.207 680.343L146.352 754.084L241.31 831.16L206.207 680.343Z" stroke="white" stroke-width="2" stroke-linejoin="round"/>
<path d="M176.28 717.214L128.801 678.676L158.728 641.805L176.28 717.214Z" stroke="white" stroke-width="2" stroke-linejoin="round"/>
<path d="M158.728 641.805L81.3219 640.138L111.249 603.267L158.728 641.805Z" stroke="white" stroke-width="2" stroke-linejoin="round"/>
<path d="M51.3947 677.008L128.801 678.676L81.3219 640.138L51.3947 677.008Z" stroke="white" stroke-width="2" stroke-linejoin="round"/>
<path d="M128.801 678.676L146.352 754.084L176.28 717.214L128.801 678.676Z" stroke="white" stroke-width="2" stroke-linejoin="round"/>
<path d="M-8.45983 750.749L146.352 754.084L51.3947 677.008L-8.45983 750.749Z" stroke="white" stroke-width="2" stroke-linejoin="round"/>
<path d="M86.498 827.825L241.31 831.16L146.352 754.084L86.498 827.825Z" stroke="white" stroke-width="2" stroke-linejoin="round"/>
<path d="M121.601 978.642L181.456 904.901L86.498 827.825L121.601 978.642Z" stroke="white" stroke-width="2" stroke-linejoin="round"/>
<path d="M-8.45978 750.749L-68.3143 824.49L86.498 827.825L-8.45978 750.749Z" stroke="white" stroke-width="2" stroke-linejoin="round"/>
<path d="M-33.211 975.307L26.6435 901.566L-68.3143 824.49L-33.211 975.307Z" stroke="white" stroke-width="2" stroke-linejoin="round"/>
<path d="M-33.211 975.307L121.601 978.642L61.7468 1052.38L-33.211 975.307Z" stroke="white" stroke-width="2" stroke-linejoin="round"/>
<path d="M61.7469 1052.38L181.456 904.901L371.371 1059.05L61.7469 1052.38Z" stroke="white" stroke-width="2" stroke-linejoin="round"/>
</g>
<defs>
<clipPath id="clip0_27_323">
<rect width="978.413" height="759.802" fill="white" transform="translate(-29.1641) rotate(39.0657)"/>
</clipPath>
</defs>
</svg>
