<svg width="1404" height="1285" viewBox="0 0 1404 1285" fill="none" xmlns="http://www.w3.org/2000/svg">
<g opacity="0.15">
<path d="M106.872 59.2656L255.833 66.8375L337.091 191.378L188.131 183.806L106.872 59.2656Z" fill="#D4D4D4"/>
<path opacity="0.3" d="M107.389 58.5879L188.277 182.424L120.865 298.743L39.9773 174.907L107.389 58.5879Z" fill="#D4D4D4"/>
<path opacity="0.6" d="M189.268 183.482L337.567 190.999L270.156 307.318L121.857 299.801L189.268 183.482Z" fill="#D4D4D4"/>
</g>
<g opacity="0.15">
<path d="M1133.43 481.84L1282.4 489.412L1363.65 613.952L1214.69 606.381L1133.43 481.84Z" fill="#D4D4D4"/>
<path opacity="0.3" d="M1133.95 481.162L1214.84 604.998L1147.43 721.317L1066.54 597.481L1133.95 481.162Z" fill="#D4D4D4"/>
<path opacity="0.6" d="M1215.83 606.056L1364.13 613.573L1296.72 729.892L1148.42 722.375L1215.83 606.056Z" fill="#D4D4D4"/>
</g>
<g opacity="0.15">
<path d="M139.434 977.84L288.395 985.412L369.653 1109.95L220.692 1102.38L139.434 977.84Z" fill="#D4D4D4"/>
<path opacity="0.3" d="M139.95 977.162L220.838 1101L153.427 1217.32L72.5388 1093.48L139.95 977.162Z" fill="#D4D4D4"/>
<path opacity="0.6" d="M221.829 1102.06L370.129 1109.57L302.717 1225.89L154.418 1218.37L221.829 1102.06Z" fill="#D4D4D4"/>
</g>
</svg>
